<?xml version="1.0" standalone="no"?>
<!DOCTYPE svg PUBLIC "-//W3C//DTD SVG 20010904//EN"
 "http://www.w3.org/TR/2001/REC-SVG-20010904/DTD/svg10.dtd">
<svg version="1.0" xmlns="http://www.w3.org/2000/svg"
 width="24.000000pt" height="24.000000pt" viewBox="0 0 24.000000 24.000000"
 preserveAspectRatio="xMidYMid meet">

<g transform="translate(0.000000,24.000000) scale(0.100000,-0.100000)"
fill="#000000" stroke="none">
<path d="M0 200 c0 -30 1 -30 53 -30 40 1 48 3 35 11 -21 12 -24 35 -5 42 7 3
5 6 -5 6 -10 1 -18 -3 -18 -9 0 -5 -7 -10 -15 -10 -8 0 -15 5 -15 10 0 6 -7
10 -15 10 -10 0 -15 -10 -15 -30z"/>
<path d="M164 215 c8 -8 22 -15 31 -15 11 0 15 -5 11 -15 -4 -10 1 -15 14 -15
16 0 20 7 20 30 0 20 -5 30 -15 30 -8 0 -15 -4 -15 -10 0 -5 -7 -10 -15 -10
-8 0 -15 5 -15 10 0 6 -7 10 -16 10 -14 0 -14 -2 0 -15z"/>
</g>
</svg>
