<?xml version="1.0" standalone="no"?>
<!DOCTYPE svg PUBLIC "-//W3C//DTD SVG 20010904//EN"
 "http://www.w3.org/TR/2001/REC-SVG-20010904/DTD/svg10.dtd">
<svg version="1.0" xmlns="http://www.w3.org/2000/svg"
 width="512.000000pt" height="512.000000pt" viewBox="0 0 512.000000 512.000000"
 preserveAspectRatio="xMidYMid meet">
<metadata>
Created by potrace 1.16, written by Peter Selinger 2001-2019
</metadata>
<g transform="translate(0.000000,512.000000) scale(0.100000,-0.100000)"
fill="#000000" stroke="none">
<path d="M1180 4944 c-507 -92 -917 -505 -1005 -1013 -19 -108 -19 -334 0
-442 89 -512 501 -924 1013 -1014 187 -32 444 -14 622 44 427 141 757 525 835
969 19 111 19 334 0 443 -89 512 -501 924 -1013 1014 -107 18 -347 18 -452 -1z
m473 -213 c542 -143 880 -649 792 -1186 -113 -698 -868 -1087 -1499 -774 -278
138 -472 380 -558 696 -31 113 -31 373 0 486 115 420 428 713 845 793 103 19
319 12 420 -15z"/>
<path d="M1237 4615 c-374 -71 -667 -369 -733 -747 -20 -115 -14 -279 15 -390
85 -326 346 -582 678 -665 107 -27 334 -24 442 5 335 91 585 345 668 679 24
94 24 332 0 426 -83 332 -338 592 -665 678 -103 27 -299 34 -405 14z m215
-102 c58 -67 5 -184 -67 -151 -67 30 -47 168 25 168 15 0 34 -8 42 -17z m-520
-240 c42 -41 49 -75 21 -105 -26 -29 -63 -22 -105 19 -43 42 -48 73 -18 103
30 30 60 25 102 -17z m1058 17 c30 -30 25 -60 -17 -102 -41 -42 -75 -49 -105
-21 -29 26 -22 63 19 105 42 43 73 48 103 18z m-534 -111 c17 -19 19 -41 22
-198 3 -133 7 -180 18 -192 7 -8 18 -29 24 -45 8 -24 32 -43 110 -88 125 -72
143 -113 68 -155 -24 -14 -31 -11 -127 43 -87 49 -107 57 -136 52 -43 -8 -98
14 -120 47 -29 45 -29 88 -2 129 24 35 25 44 29 211 3 155 5 177 22 196 11 12
31 21 46 21 15 0 35 -9 46 -21z m-739 -409 c64 -23 62 -99 -4 -121 -61 -20
-123 11 -123 61 0 54 62 82 127 60z m1494 -16 c24 -21 24 -66 2 -87 -65 -58
-184 -5 -151 68 20 45 108 56 149 19z m-1259 -501 c29 -26 22 -63 -19 -105
-42 -43 -73 -48 -103 -18 -30 30 -25 60 17 102 41 42 75 49 105 21z m1020 -20
c43 -42 48 -73 18 -103 -30 -30 -60 -25 -102 17 -42 41 -49 75 -21 105 26 29
63 22 105 -19z m-538 -174 c68 -31 48 -169 -24 -169 -49 0 -80 64 -60 125 8
26 28 45 57 54 1 1 13 -4 27 -10z"/>
<path d="M2942 4127 c-29 -31 -29 -77 1 -105 22 -21 30 -21 417 -24 388 -3
396 -3 445 -26 65 -30 138 -102 167 -166 22 -49 23 -64 26 -326 2 -162 -1
-271 -6 -265 -5 6 -42 50 -82 98 -41 49 -85 93 -98 98 -51 19 -113 -42 -93
-93 8 -22 232 -301 294 -365 23 -24 40 -33 64 -33 35 0 40 5 262 275 76 93 90
116 91 146 0 44 -28 72 -70 72 -36 0 -57 -18 -142 -124 l-63 -78 -5 287 c-6
266 -8 291 -28 343 -60 152 -174 254 -329 294 -46 12 -133 15 -443 15 l-387 0
-21 -23z"/>
<path d="M3480 2644 c-507 -92 -917 -505 -1005 -1013 -19 -108 -19 -334 0
-442 89 -512 501 -924 1013 -1014 187 -32 444 -14 622 44 427 141 757 525 835
969 19 111 19 334 0 443 -89 512 -501 924 -1013 1014 -107 18 -347 18 -452 -1z
m357 -540 c57 -27 101 -72 135 -137 31 -58 32 -172 2 -238 -66 -143 -241 -210
-381 -145 -111 52 -179 165 -170 281 16 208 227 329 414 239z m53 -656 c108
-33 179 -77 265 -163 119 -118 185 -267 185 -414 0 -112 -53 -169 -209 -225
-258 -93 -673 -82 -901 25 -113 53 -150 102 -150 200 0 245 189 493 439 574
119 39 251 40 371 3z"/>
<path d="M941 2118 c-225 -267 -250 -302 -251 -339 0 -44 28 -72 70 -72 36 0
57 18 142 124 l63 78 6 -287 c3 -158 10 -300 16 -317 38 -110 124 -221 210
-272 104 -60 127 -63 568 -63 l404 0 15 22 c23 32 20 81 -5 104 -20 18 -46 19
-423 24 -355 4 -405 7 -440 23 -65 29 -120 82 -157 149 l-34 63 -3 280 c-2
167 0 276 6 270 5 -5 42 -50 82 -98 41 -49 85 -93 98 -98 51 -19 113 42 93 93
-8 22 -232 301 -294 366 -23 23 -40 32 -64 32 -29 0 -41 -10 -102 -82z"/>
</g>
</svg>
